<?xml version="1.0" encoding="UTF-8"?>
<svg xmlns="http://www.w3.org/2000/svg" xmlns:xlink="http://www.w3.org/1999/xlink" width="375pt" height="374.999991pt" viewBox="0 0 375 374.999991" version="1.2">
<defs>
<clipPath id="clip1">
  <path d="M 199.242188 99.882812 L 337.949219 99.882812 L 337.949219 249.695312 L 199.242188 249.695312 Z M 199.242188 99.882812 "/>
</clipPath>
<clipPath id="clip2">
  <path d="M 40 106 L 184 106 L 184 236 L 40 236 Z M 40 106 "/>
</clipPath>
<clipPath id="clip3">
  <path d="M 172.292969 207.558594 C 173.964844 205.160156 175.464844 202.65625 176.796875 200.054688 C 178.125 197.449219 179.269531 194.765625 180.234375 192.007812 C 181.195312 189.246094 181.96875 186.433594 182.546875 183.570312 C 183.125 180.703125 183.503906 177.8125 183.6875 174.898438 C 183.871094 171.980469 183.851562 169.0625 183.636719 166.148438 C 183.421875 163.234375 183.007812 160.347656 182.398438 157.492188 C 181.789062 154.632812 180.984375 151.828125 179.992188 149.078125 C 178.996094 146.328125 177.820312 143.660156 176.460938 141.070312 C 175.101562 138.484375 173.574219 135.996094 171.875 133.617188 C 170.175781 131.234375 168.324219 128.980469 166.316406 126.851562 C 164.308594 124.722656 162.164062 122.738281 159.886719 120.898438 C 157.609375 119.0625 155.214844 117.386719 152.707031 115.875 C 150.199219 114.363281 147.601562 113.027344 144.910156 111.867188 C 142.21875 110.707031 139.460938 109.738281 136.640625 108.953125 C 133.816406 108.167969 130.953125 107.578125 128.050781 107.183594 C 125.144531 106.789062 122.226562 106.59375 119.296875 106.59375 C 116.992188 106.601562 114.691406 106.726562 112.398438 106.972656 C 111.273438 106.851562 110.148438 106.757812 109.019531 106.695312 C 107.890625 106.632812 106.761719 106.597656 105.628906 106.59375 C 104.5 106.589844 103.371094 106.617188 102.242188 106.671875 C 101.113281 106.726562 99.984375 106.8125 98.859375 106.925781 C 97.734375 107.039062 96.613281 107.183594 95.496094 107.355469 C 94.378906 107.53125 93.269531 107.730469 92.164062 107.964844 C 91.054688 108.195312 89.957031 108.457031 88.863281 108.746094 C 87.769531 109.035156 86.6875 109.351562 85.609375 109.695312 C 84.535156 110.042969 83.46875 110.417969 82.414062 110.820312 C 81.355469 111.21875 80.3125 111.648438 79.277344 112.105469 C 78.242188 112.5625 77.222656 113.046875 76.214844 113.554688 C 75.207031 114.066406 74.210938 114.601562 73.234375 115.164062 C 72.253906 115.726562 71.289062 116.3125 70.339844 116.925781 C 69.390625 117.539062 68.457031 118.175781 67.542969 118.839844 C 66.628906 119.5 65.730469 120.183594 64.851562 120.894531 C 63.972656 121.601562 63.113281 122.332031 62.269531 123.085938 C 61.429688 123.839844 60.609375 124.617188 59.808594 125.414062 C 59.011719 126.210938 58.230469 127.027344 57.476562 127.863281 C 56.71875 128.703125 55.984375 129.558594 55.273438 130.433594 C 54.5625 131.3125 53.875 132.207031 53.210938 133.117188 C 52.542969 134.03125 51.90625 134.957031 51.289062 135.902344 C 50.675781 136.847656 50.082031 137.8125 49.519531 138.789062 C 48.953125 139.765625 48.414062 140.753906 47.902344 141.757812 C 47.390625 142.765625 46.90625 143.78125 46.445312 144.8125 C 45.988281 145.84375 45.554688 146.882812 45.152344 147.9375 C 44.746094 148.988281 44.371094 150.050781 44.023438 151.125 C 43.675781 152.199219 43.355469 153.277344 43.066406 154.367188 C 42.773438 155.457031 42.511719 156.554688 42.277344 157.65625 C 42.046875 158.761719 41.839844 159.867188 41.667969 160.980469 C 41.492188 162.097656 41.347656 163.214844 41.230469 164.335938 C 41.113281 165.457031 41.027344 166.578125 40.972656 167.707031 C 40.914062 168.832031 40.886719 169.957031 40.890625 171.085938 C 40.894531 172.214844 40.925781 173.339844 40.988281 174.464844 C 41.050781 175.589844 41.140625 176.714844 41.261719 177.835938 C 41.386719 178.957031 41.535156 180.074219 41.714844 181.1875 C 41.894531 182.296875 42.105469 183.40625 42.34375 184.507812 C 42.582031 185.609375 42.851562 186.703125 43.148438 187.792969 C 43.441406 188.878906 43.769531 189.960938 44.121094 191.03125 C 44.472656 192.101562 44.855469 193.164062 45.265625 194.214844 C 45.671875 195.265625 46.109375 196.304688 46.574219 197.332031 C 47.039062 198.359375 47.527344 199.375 48.046875 200.378906 C 48.5625 201.378906 49.109375 202.367188 49.675781 203.34375 C 50.246094 204.316406 50.839844 205.273438 51.460938 206.214844 C 52.082031 207.160156 52.726562 208.085938 53.394531 208.992188 C 54.0625 209.902344 54.757812 210.792969 55.472656 211.664062 C 56.1875 212.539062 56.925781 213.390625 57.6875 214.226562 C 58.449219 215.058594 59.230469 215.871094 60.035156 216.664062 C 60.835938 217.457031 61.660156 218.230469 62.507812 218.980469 C 63.351562 219.730469 64.214844 220.457031 65.097656 221.160156 C 65.980469 221.863281 66.878906 222.546875 67.796875 223.203125 C 68.71875 223.859375 69.652344 224.492188 70.605469 225.101562 C 71.554688 225.707031 72.523438 226.292969 73.507812 226.847656 C 74.488281 227.40625 75.484375 227.9375 76.496094 228.441406 C 77.507812 228.949219 78.53125 229.425781 79.566406 229.878906 C 80.601562 230.328125 81.648438 230.753906 82.707031 231.148438 C 83.765625 231.546875 84.832031 231.914062 85.910156 232.257812 C 86.988281 232.597656 88.074219 232.910156 89.167969 233.191406 C 90.261719 233.476562 91.363281 233.730469 92.472656 233.957031 C 93.578125 234.183594 94.691406 234.378906 95.808594 234.546875 C 96.925781 234.714844 98.050781 234.855469 99.175781 234.964844 C 100.300781 235.070312 101.425781 235.152344 102.554688 235.199219 C 103.6875 235.25 104.816406 235.269531 105.945312 235.261719 C 107.078125 235.253906 108.207031 235.214844 109.335938 235.144531 C 110.464844 235.074219 111.589844 234.976562 112.710938 234.851562 L 112.710938 234.933594 C 114.90625 235.15625 117.101562 235.265625 119.296875 235.265625 C 121.886719 235.265625 124.464844 235.109375 127.035156 234.796875 C 129.605469 234.488281 132.148438 234.023438 134.660156 233.40625 C 137.175781 232.792969 139.644531 232.027344 142.066406 231.113281 C 144.488281 230.203125 146.84375 229.148438 149.140625 227.953125 C 151.433594 226.757812 153.648438 225.425781 155.78125 223.964844 C 157.914062 222.503906 159.953125 220.917969 161.894531 219.210938 C 163.839844 217.507812 165.671875 215.6875 167.394531 213.761719 C 169.117188 211.835938 170.71875 209.8125 172.195312 207.695312 L 172.292969 207.695312 Z M 173.5625 145.65625 L 164.804688 145.65625 C 163.425781 142.460938 161.796875 139.398438 159.917969 136.464844 L 168.195312 136.464844 C 170.257812 139.371094 172.046875 142.433594 173.5625 145.65625 Z M 175.5 150.25 C 176.609375 153.246094 177.46875 156.308594 178.082031 159.441406 L 168.9375 159.441406 C 168.371094 156.320312 167.574219 153.257812 166.550781 150.25 Z M 179.203125 170.929688 C 179.203125 171.699219 179.175781 172.464844 179.148438 173.226562 L 169.929688 173.226562 C 169.957031 172.464844 169.988281 171.699219 169.988281 170.929688 C 169.988281 168.625 169.863281 166.328125 169.613281 164.039062 L 178.796875 164.039062 C 179.0625 166.328125 179.199219 168.625 179.203125 170.929688 Z M 169.613281 177.824219 L 178.796875 177.824219 C 178.34375 181.734375 177.507812 185.566406 176.289062 189.3125 L 167.289062 189.3125 C 168.417969 185.554688 169.191406 181.722656 169.613281 177.824219 Z M 165.71875 193.90625 L 174.597656 193.90625 C 173.253906 197.113281 171.640625 200.175781 169.757812 203.097656 L 161.308594 203.097656 C 163.023438 200.152344 164.496094 197.089844 165.71875 193.90625 Z M 164.566406 131.871094 L 156.6875 131.871094 C 154.8125 129.425781 152.769531 127.128906 150.5625 124.976562 L 157.53125 124.976562 C 160.0625 127.082031 162.410156 129.378906 164.566406 131.871094 Z M 151.164062 120.382812 L 145.308594 120.382812 C 141.53125 117.40625 137.46875 114.882812 133.121094 112.8125 C 139.558594 114.335938 145.574219 116.859375 151.164062 120.382812 Z M 45.566406 170.929688 C 45.566406 168.972656 45.660156 167.023438 45.851562 165.074219 C 46.046875 163.128906 46.332031 161.195312 46.714844 159.277344 C 47.097656 157.355469 47.574219 155.460938 48.144531 153.589844 C 48.714844 151.71875 49.375 149.875 50.125 148.070312 C 50.875 146.261719 51.714844 144.496094 52.636719 142.769531 C 53.5625 141.042969 54.570312 139.367188 55.660156 137.742188 C 56.75 136.113281 57.917969 134.542969 59.164062 133.03125 C 60.40625 131.519531 61.722656 130.070312 63.109375 128.6875 C 64.5 127.304688 65.949219 125.992188 67.46875 124.75 C 68.984375 123.511719 70.558594 122.347656 72.1875 121.257812 C 73.820312 120.171875 75.5 119.167969 77.230469 118.246094 C 78.960938 117.324219 80.734375 116.488281 82.546875 115.738281 C 84.359375 114.988281 86.203125 114.332031 88.082031 113.761719 C 89.960938 113.195312 91.859375 112.71875 93.785156 112.339844 C 95.710938 111.957031 97.648438 111.671875 99.601562 111.480469 C 101.554688 111.285156 103.511719 111.191406 105.472656 111.191406 C 107.433594 111.191406 109.390625 111.285156 111.34375 111.480469 C 113.296875 111.671875 115.234375 111.957031 117.160156 112.339844 C 119.085938 112.71875 120.984375 113.195312 122.863281 113.761719 C 124.738281 114.332031 126.585938 114.988281 128.398438 115.738281 C 130.210938 116.488281 131.980469 117.324219 133.710938 118.246094 C 135.441406 119.167969 137.125 120.171875 138.753906 121.257812 C 140.386719 122.347656 141.960938 123.511719 143.476562 124.75 C 144.996094 125.992188 146.445312 127.304688 147.832031 128.6875 C 149.222656 130.070312 150.535156 131.519531 151.78125 133.03125 C 153.027344 134.542969 154.195312 136.113281 155.285156 137.742188 C 156.375 139.367188 157.382812 141.042969 158.304688 142.769531 C 159.230469 144.496094 160.070312 146.261719 160.820312 148.070312 C 161.570312 149.875 162.230469 151.71875 162.800781 153.589844 C 163.371094 155.460938 163.847656 157.355469 164.230469 159.277344 C 164.613281 161.195312 164.898438 163.128906 165.089844 165.074219 C 165.285156 167.023438 165.378906 168.972656 165.378906 170.929688 C 165.378906 172.886719 165.285156 174.839844 165.089844 176.785156 C 164.898438 178.734375 164.613281 180.667969 164.230469 182.585938 C 163.847656 184.503906 163.371094 186.398438 162.800781 188.273438 C 162.230469 190.144531 161.570312 191.984375 160.820312 193.792969 C 160.070312 195.601562 159.230469 197.367188 158.304688 199.09375 C 157.382812 200.816406 156.375 202.492188 155.285156 204.121094 C 154.195312 205.746094 153.027344 207.316406 151.78125 208.828125 C 150.535156 210.339844 149.222656 211.789062 147.832031 213.171875 C 146.445312 214.558594 144.996094 215.867188 143.476562 217.109375 C 141.960938 218.351562 140.386719 219.515625 138.753906 220.601562 C 137.125 221.691406 135.441406 222.695312 133.710938 223.617188 C 131.980469 224.539062 130.210938 225.375 128.398438 226.125 C 126.585938 226.871094 124.738281 227.53125 122.863281 228.097656 C 120.984375 228.667969 119.085938 229.140625 117.160156 229.523438 C 115.234375 229.90625 113.296875 230.191406 111.34375 230.382812 C 109.390625 230.574219 107.433594 230.671875 105.472656 230.671875 C 103.511719 230.667969 101.554688 230.570312 99.601562 230.378906 C 97.652344 230.183594 95.714844 229.894531 93.789062 229.511719 C 91.867188 229.128906 89.964844 228.652344 88.089844 228.082031 C 86.210938 227.515625 84.367188 226.855469 82.558594 226.105469 C 80.746094 225.355469 78.976562 224.519531 77.246094 223.597656 C 75.515625 222.675781 73.835938 221.667969 72.207031 220.582031 C 70.574219 219.496094 69 218.332031 67.484375 217.089844 C 65.96875 215.847656 64.519531 214.535156 63.128906 213.152344 C 61.742188 211.769531 60.429688 210.324219 59.183594 208.8125 C 57.9375 207.300781 56.769531 205.730469 55.679688 204.105469 C 54.589844 202.480469 53.582031 200.804688 52.65625 199.078125 C 51.734375 197.355469 50.894531 195.589844 50.140625 193.78125 C 49.390625 191.976562 48.730469 190.136719 48.160156 188.265625 C 47.589844 186.394531 47.109375 184.5 46.726562 182.582031 C 46.34375 180.664062 46.054688 178.730469 45.859375 176.785156 C 45.664062 174.835938 45.566406 172.886719 45.566406 170.929688 Z M 145.308594 221.480469 L 151.164062 221.480469 C 145.574219 225.003906 139.558594 227.527344 133.121094 229.046875 C 137.46875 226.976562 141.53125 224.457031 145.308594 221.480469 Z M 157.519531 216.882812 L 150.5625 216.882812 C 153.453125 214.0625 156.054688 211 158.371094 207.695312 L 166.464844 207.695312 C 163.816406 211.074219 160.835938 214.136719 157.53125 216.882812 Z M 105.472656 120.382812 C 103.8125 120.382812 102.15625 120.460938 100.503906 120.625 C 98.851562 120.789062 97.210938 121.03125 95.582031 121.351562 C 93.953125 121.675781 92.347656 122.078125 90.757812 122.558594 C 89.167969 123.039062 87.609375 123.597656 86.074219 124.230469 C 84.539062 124.863281 83.039062 125.570312 81.578125 126.351562 C 80.113281 127.128906 78.691406 127.980469 77.308594 128.902344 C 75.929688 129.820312 74.597656 130.804688 73.3125 131.855469 C 72.03125 132.90625 70.800781 134.015625 69.628906 135.1875 C 68.453125 136.359375 67.339844 137.582031 66.289062 138.863281 C 65.234375 140.140625 64.246094 141.46875 63.324219 142.847656 C 62.402344 144.222656 61.550781 145.640625 60.765625 147.101562 C 59.984375 148.5625 59.273438 150.058594 58.640625 151.585938 C 58.003906 153.117188 57.445312 154.671875 56.964844 156.257812 C 56.480469 157.839844 56.078125 159.445312 55.753906 161.070312 C 55.429688 162.691406 55.1875 164.328125 55.023438 165.976562 C 54.863281 167.625 54.78125 169.273438 54.78125 170.929688 C 54.78125 172.585938 54.863281 174.238281 55.023438 175.886719 C 55.1875 177.53125 55.429688 179.167969 55.753906 180.792969 C 56.078125 182.417969 56.480469 184.019531 56.964844 185.605469 C 57.445312 187.1875 58.003906 188.746094 58.640625 190.273438 C 59.273438 191.804688 59.984375 193.300781 60.765625 194.757812 C 61.550781 196.21875 62.402344 197.636719 63.324219 199.015625 C 64.246094 200.390625 65.234375 201.71875 66.289062 203 C 67.339844 204.277344 68.453125 205.503906 69.628906 206.675781 C 70.800781 207.84375 72.03125 208.957031 73.3125 210.003906 C 74.597656 211.054688 75.929688 212.042969 77.308594 212.960938 C 78.691406 213.878906 80.113281 214.730469 81.578125 215.511719 C 83.039062 216.292969 84.539062 217 86.074219 217.632812 C 87.609375 218.265625 89.167969 218.824219 90.757812 219.304688 C 92.347656 219.785156 93.953125 220.1875 95.582031 220.507812 C 97.210938 220.832031 98.851562 221.074219 100.503906 221.238281 C 102.15625 221.398438 103.8125 221.480469 105.472656 221.480469 C 107.132812 221.480469 108.789062 221.398438 110.441406 221.238281 C 112.09375 221.074219 113.734375 220.832031 115.363281 220.507812 C 116.988281 220.1875 118.597656 219.785156 120.1875 219.304688 C 121.777344 218.824219 123.335938 218.265625 124.871094 217.632812 C 126.40625 217 127.902344 216.292969 129.367188 215.511719 C 130.832031 214.730469 132.253906 213.878906 133.636719 212.960938 C 135.015625 212.042969 136.347656 211.054688 137.628906 210.003906 C 138.914062 208.957031 140.140625 207.84375 141.316406 206.675781 C 142.492188 205.503906 143.605469 204.277344 144.65625 203 C 145.710938 201.71875 146.699219 200.390625 147.621094 199.015625 C 148.542969 197.636719 149.394531 196.21875 150.179688 194.757812 C 150.960938 193.300781 151.667969 191.804688 152.304688 190.273438 C 152.941406 188.746094 153.5 187.1875 153.980469 185.605469 C 154.460938 184.019531 154.867188 182.417969 155.191406 180.792969 C 155.511719 179.167969 155.757812 177.53125 155.917969 175.886719 C 156.082031 174.238281 156.164062 172.585938 156.164062 170.929688 C 156.160156 169.277344 156.078125 167.625 155.914062 165.976562 C 155.75 164.332031 155.503906 162.695312 155.179688 161.074219 C 154.855469 159.449219 154.449219 157.847656 153.96875 156.261719 C 153.484375 154.679688 152.925781 153.125 152.289062 151.59375 C 151.652344 150.066406 150.945312 148.574219 150.160156 147.113281 C 149.378906 145.652344 148.523438 144.238281 147.601562 142.859375 C 146.679688 141.484375 145.691406 140.15625 144.640625 138.878906 C 143.585938 137.597656 142.472656 136.375 141.300781 135.203125 C 140.125 134.035156 138.898438 132.921875 137.613281 131.875 C 136.332031 130.824219 135 129.839844 133.621094 128.917969 C 132.242188 128 130.820312 127.148438 129.355469 126.367188 C 127.894531 125.585938 126.394531 124.878906 124.863281 124.246094 C 123.328125 123.609375 121.769531 123.050781 120.179688 122.570312 C 118.59375 122.089844 116.984375 121.6875 115.359375 121.363281 C 113.730469 121.039062 112.089844 120.792969 110.4375 120.628906 C 108.789062 120.464844 107.132812 120.382812 105.472656 120.382812 Z M 105.472656 216.882812 C 103.964844 216.882812 102.457031 216.8125 100.957031 216.664062 C 99.453125 216.515625 97.960938 216.296875 96.480469 216 C 95 215.707031 93.539062 215.34375 92.09375 214.90625 C 90.652344 214.46875 89.230469 213.960938 87.835938 213.386719 C 86.441406 212.808594 85.078125 212.167969 83.75 211.457031 C 82.417969 210.75 81.125 209.976562 79.871094 209.140625 C 78.613281 208.304688 77.40625 207.410156 76.238281 206.453125 C 75.070312 205.5 73.953125 204.488281 72.886719 203.425781 C 71.820312 202.359375 70.808594 201.246094 69.851562 200.082031 C 68.890625 198.921875 67.996094 197.710938 67.15625 196.460938 C 66.316406 195.210938 65.542969 193.921875 64.832031 192.59375 C 64.121094 191.265625 63.476562 189.90625 62.898438 188.515625 C 62.320312 187.125 61.8125 185.710938 61.375 184.269531 C 60.9375 182.832031 60.570312 181.371094 60.273438 179.894531 C 59.980469 178.417969 59.757812 176.933594 59.609375 175.433594 C 59.464844 173.9375 59.390625 172.4375 59.390625 170.929688 C 59.390625 169.425781 59.464844 167.925781 59.609375 166.425781 C 59.757812 164.929688 59.980469 163.441406 60.273438 161.964844 C 60.570312 160.488281 60.9375 159.03125 61.375 157.589844 C 61.8125 156.152344 62.320312 154.734375 62.898438 153.34375 C 63.476562 151.953125 64.121094 150.59375 64.832031 149.269531 C 65.542969 147.941406 66.316406 146.652344 67.15625 145.398438 C 67.996094 144.148438 68.890625 142.941406 69.851562 141.777344 C 70.808594 140.613281 71.820312 139.5 72.886719 138.4375 C 73.953125 137.371094 75.070312 136.363281 76.238281 135.40625 C 77.40625 134.453125 78.613281 133.558594 79.871094 132.722656 C 81.125 131.886719 82.417969 131.113281 83.75 130.402344 C 85.078125 129.695312 86.441406 129.050781 87.835938 128.476562 C 89.230469 127.898438 90.652344 127.394531 92.09375 126.957031 C 93.539062 126.519531 95 126.152344 96.480469 125.859375 C 97.960938 125.566406 99.453125 125.347656 100.957031 125.199219 C 102.457031 125.050781 103.964844 124.976562 105.472656 124.976562 C 106.980469 124.976562 108.488281 125.050781 109.988281 125.199219 C 111.492188 125.347656 112.980469 125.566406 114.460938 125.859375 C 115.941406 126.152344 117.40625 126.519531 118.847656 126.957031 C 120.292969 127.394531 121.714844 127.898438 123.109375 128.476562 C 124.5 129.050781 125.863281 129.695312 127.195312 130.402344 C 128.527344 131.113281 129.820312 131.886719 131.074219 132.722656 C 132.328125 133.558594 133.539062 134.453125 134.707031 135.40625 C 135.875 136.363281 136.992188 137.371094 138.058594 138.4375 C 139.125 139.5 140.136719 140.613281 141.09375 141.777344 C 142.050781 142.941406 142.949219 144.148438 143.789062 145.398438 C 144.628906 146.652344 145.402344 147.941406 146.113281 149.269531 C 146.824219 150.59375 147.46875 151.953125 148.046875 153.34375 C 148.625 154.734375 149.132812 156.152344 149.570312 157.589844 C 150.007812 159.03125 150.375 160.488281 150.667969 161.964844 C 150.964844 163.441406 151.183594 164.929688 151.332031 166.425781 C 151.480469 167.925781 151.554688 169.425781 151.554688 170.929688 C 151.554688 172.433594 151.476562 173.9375 151.328125 175.433594 C 151.179688 176.929688 150.957031 178.417969 150.660156 179.890625 C 150.367188 181.367188 150 182.824219 149.558594 184.265625 C 149.121094 185.703125 148.613281 187.117188 148.035156 188.507812 C 147.457031 189.898438 146.808594 191.257812 146.097656 192.582031 C 145.386719 193.910156 144.609375 195.199219 143.773438 196.449219 C 142.933594 197.699219 142.035156 198.90625 141.078125 200.070312 C 140.121094 201.230469 139.109375 202.34375 138.042969 203.410156 C 136.976562 204.472656 135.859375 205.484375 134.691406 206.4375 C 133.527344 207.390625 132.316406 208.289062 131.0625 209.125 C 129.808594 209.960938 128.515625 210.734375 127.183594 211.441406 C 125.855469 212.152344 124.492188 212.796875 123.097656 213.371094 C 121.707031 213.949219 120.289062 214.457031 118.84375 214.894531 C 117.398438 215.332031 115.9375 215.699219 114.460938 215.992188 C 112.980469 216.289062 111.488281 216.507812 109.988281 216.660156 C 108.484375 216.808594 106.980469 216.882812 105.472656 216.882812 Z M 92.167969 164.039062 L 112.101562 164.039062 C 112.40625 164.039062 112.699219 164.097656 112.984375 164.210938 C 113.265625 164.328125 113.515625 164.496094 113.730469 164.710938 C 113.945312 164.925781 114.113281 165.175781 114.230469 165.457031 C 114.347656 165.738281 114.40625 166.03125 114.40625 166.335938 C 114.40625 166.640625 114.347656 166.933594 114.230469 167.214844 C 114.113281 167.496094 113.945312 167.746094 113.730469 167.960938 C 113.515625 168.175781 113.265625 168.339844 112.984375 168.457031 C 112.699219 168.574219 112.40625 168.632812 112.101562 168.632812 L 91.457031 168.632812 C 91.402344 169.390625 91.363281 170.152344 91.363281 170.929688 C 91.363281 171.707031 91.402344 172.46875 91.457031 173.226562 L 112.101562 173.226562 C 112.40625 173.226562 112.699219 173.285156 112.984375 173.402344 C 113.265625 173.519531 113.515625 173.6875 113.730469 173.902344 C 113.945312 174.117188 114.113281 174.367188 114.230469 174.648438 C 114.347656 174.929688 114.40625 175.222656 114.40625 175.527344 C 114.40625 175.832031 114.347656 176.125 114.230469 176.40625 C 114.113281 176.6875 113.945312 176.933594 113.730469 177.152344 C 113.515625 177.367188 113.265625 177.53125 112.984375 177.648438 C 112.699219 177.765625 112.40625 177.824219 112.101562 177.824219 L 92.167969 177.824219 C 94.636719 188.417969 102.628906 196.207031 112.101562 196.207031 C 113.789062 196.15625 115.441406 195.890625 117.058594 195.414062 C 118.679688 194.9375 120.207031 194.261719 121.652344 193.390625 C 123.097656 192.519531 124.40625 191.480469 125.578125 190.269531 C 126.753906 189.0625 127.753906 187.722656 128.582031 186.257812 C 128.742188 185.996094 128.949219 185.78125 129.199219 185.601562 C 129.449219 185.425781 129.722656 185.300781 130.019531 185.234375 C 130.316406 185.164062 130.617188 185.15625 130.917969 185.207031 C 131.222656 185.257812 131.503906 185.363281 131.761719 185.523438 C 132.023438 185.6875 132.242188 185.890625 132.417969 186.140625 C 132.597656 186.386719 132.71875 186.660156 132.789062 186.957031 C 132.855469 187.257812 132.867188 187.554688 132.816406 187.855469 C 132.765625 188.15625 132.660156 188.4375 132.496094 188.695312 C 131.453125 190.488281 130.203125 192.117188 128.742188 193.589844 C 127.28125 195.0625 125.65625 196.328125 123.875 197.386719 C 122.089844 198.445312 120.199219 199.261719 118.207031 199.839844 C 116.210938 200.421875 114.175781 200.738281 112.101562 200.800781 C 100.140625 200.800781 90.113281 190.976562 87.464844 177.824219 L 82.148438 177.824219 C 81.84375 177.824219 81.546875 177.765625 81.265625 177.648438 C 80.984375 177.53125 80.734375 177.367188 80.519531 177.152344 C 80.300781 176.933594 80.136719 176.6875 80.019531 176.40625 C 79.902344 176.125 79.84375 175.832031 79.84375 175.527344 C 79.84375 175.222656 79.902344 174.929688 80.019531 174.648438 C 80.136719 174.367188 80.300781 174.117188 80.519531 173.902344 C 80.734375 173.6875 80.984375 173.519531 81.265625 173.402344 C 81.546875 173.285156 81.84375 173.226562 82.148438 173.226562 L 86.855469 173.226562 C 86.804688 172.46875 86.753906 171.707031 86.753906 170.929688 C 86.753906 170.152344 86.804688 169.394531 86.855469 168.632812 L 82.148438 168.632812 C 81.84375 168.632812 81.546875 168.574219 81.265625 168.457031 C 80.984375 168.339844 80.734375 168.175781 80.519531 167.960938 C 80.300781 167.746094 80.136719 167.496094 80.019531 167.214844 C 79.902344 166.933594 79.84375 166.640625 79.84375 166.335938 C 79.84375 166.03125 79.902344 165.738281 80.019531 165.457031 C 80.136719 165.175781 80.300781 164.925781 80.519531 164.710938 C 80.734375 164.496094 80.984375 164.328125 81.265625 164.210938 C 81.546875 164.097656 81.84375 164.039062 82.148438 164.039062 L 87.464844 164.039062 C 90.113281 150.886719 100.136719 141.0625 112.101562 141.0625 C 113.160156 141.09375 114.210938 141.191406 115.257812 141.359375 C 116.300781 141.527344 117.332031 141.761719 118.34375 142.0625 C 119.359375 142.363281 120.351562 142.730469 121.316406 143.160156 C 122.285156 143.585938 123.21875 144.078125 124.125 144.628906 C 125.027344 145.179688 125.890625 145.785156 126.714844 146.445312 C 127.539062 147.109375 128.316406 147.820312 129.046875 148.582031 C 129.78125 149.347656 130.460938 150.152344 131.085938 151.003906 C 131.710938 151.855469 132.28125 152.742188 132.792969 153.664062 C 132.964844 153.925781 133.074219 154.210938 133.128906 154.519531 C 133.183594 154.828125 133.175781 155.132812 133.105469 155.4375 C 133.035156 155.738281 132.910156 156.019531 132.726562 156.269531 C 132.542969 156.523438 132.316406 156.730469 132.046875 156.890625 C 131.777344 157.050781 131.488281 157.152344 131.179688 157.195312 C 130.871094 157.238281 130.5625 157.21875 130.261719 157.136719 C 129.960938 157.054688 129.683594 156.917969 129.4375 156.726562 C 129.191406 156.535156 128.996094 156.300781 128.84375 156.027344 C 128.019531 154.515625 127.011719 153.128906 125.828125 151.878906 C 124.640625 150.625 123.316406 149.542969 121.847656 148.632812 C 120.378906 147.722656 118.820312 147.015625 117.167969 146.511719 C 115.515625 146.007812 113.828125 145.722656 112.101562 145.65625 C 102.628906 145.65625 94.644531 153.445312 92.167969 164.039062 Z M 75.519531 166.335938 C 75.519531 166.640625 75.460938 166.933594 75.34375 167.214844 C 75.226562 167.496094 75.058594 167.746094 74.84375 167.960938 C 74.628906 168.175781 74.378906 168.339844 74.097656 168.457031 C 73.8125 168.574219 73.519531 168.632812 73.214844 168.632812 L 68.605469 168.632812 C 68.300781 168.632812 68.007812 168.574219 67.722656 168.457031 C 67.441406 168.339844 67.191406 168.175781 66.976562 167.960938 C 66.761719 167.746094 66.59375 167.496094 66.476562 167.214844 C 66.359375 166.933594 66.300781 166.640625 66.300781 166.335938 C 66.300781 166.03125 66.359375 165.738281 66.476562 165.457031 C 66.59375 165.175781 66.761719 164.925781 66.976562 164.710938 C 67.191406 164.496094 67.441406 164.328125 67.722656 164.210938 C 68.007812 164.097656 68.300781 164.039062 68.605469 164.039062 L 73.214844 164.039062 C 73.519531 164.039062 73.8125 164.097656 74.097656 164.210938 C 74.378906 164.328125 74.628906 164.496094 74.84375 164.710938 C 75.058594 164.925781 75.226562 165.175781 75.34375 165.457031 C 75.460938 165.738281 75.519531 166.03125 75.519531 166.335938 Z M 75.519531 175.527344 C 75.519531 175.832031 75.460938 176.125 75.34375 176.40625 C 75.226562 176.6875 75.058594 176.933594 74.84375 177.152344 C 74.628906 177.367188 74.378906 177.53125 74.097656 177.648438 C 73.8125 177.765625 73.519531 177.824219 73.214844 177.824219 L 68.605469 177.824219 C 68.300781 177.824219 68.007812 177.765625 67.722656 177.648438 C 67.441406 177.53125 67.191406 177.367188 66.976562 177.152344 C 66.761719 176.933594 66.59375 176.6875 66.476562 176.40625 C 66.359375 176.125 66.300781 175.832031 66.300781 175.527344 C 66.300781 175.222656 66.359375 174.929688 66.476562 174.648438 C 66.59375 174.367188 66.761719 174.117188 66.976562 173.902344 C 67.191406 173.6875 67.441406 173.519531 67.722656 173.402344 C 68.007812 173.285156 68.300781 173.226562 68.605469 173.226562 L 73.214844 173.226562 C 73.519531 173.226562 73.8125 173.285156 74.097656 173.402344 C 74.378906 173.519531 74.628906 173.6875 74.84375 173.902344 C 75.058594 174.117188 75.226562 174.367188 75.34375 174.648438 C 75.460938 174.929688 75.519531 175.222656 75.519531 175.527344 Z M 135.425781 166.335938 C 135.425781 166.03125 135.484375 165.738281 135.601562 165.457031 C 135.71875 165.175781 135.886719 164.925781 136.101562 164.710938 C 136.316406 164.496094 136.566406 164.328125 136.847656 164.210938 C 137.132812 164.097656 137.425781 164.039062 137.730469 164.039062 L 142.339844 164.039062 C 142.644531 164.039062 142.9375 164.097656 143.21875 164.210938 C 143.503906 164.328125 143.75 164.496094 143.96875 164.710938 C 144.183594 164.925781 144.351562 165.175781 144.46875 165.457031 C 144.585938 165.738281 144.644531 166.03125 144.644531 166.335938 C 144.644531 166.640625 144.585938 166.933594 144.46875 167.214844 C 144.351562 167.496094 144.183594 167.746094 143.96875 167.960938 C 143.75 168.175781 143.503906 168.339844 143.21875 168.457031 C 142.9375 168.574219 142.644531 168.632812 142.339844 168.632812 L 137.730469 168.632812 C 137.425781 168.632812 137.132812 168.574219 136.847656 168.457031 C 136.566406 168.339844 136.316406 168.175781 136.101562 167.960938 C 135.886719 167.746094 135.71875 167.496094 135.601562 167.214844 C 135.484375 166.933594 135.425781 166.640625 135.425781 166.335938 Z M 144.644531 175.527344 C 144.644531 175.832031 144.585938 176.125 144.46875 176.40625 C 144.351562 176.6875 144.183594 176.933594 143.96875 177.152344 C 143.75 177.367188 143.503906 177.53125 143.21875 177.648438 C 142.9375 177.765625 142.644531 177.824219 142.339844 177.824219 L 137.730469 177.824219 C 137.425781 177.824219 137.132812 177.765625 136.847656 177.648438 C 136.566406 177.53125 136.316406 177.367188 136.101562 177.152344 C 135.886719 176.933594 135.71875 176.6875 135.601562 176.40625 C 135.484375 176.125 135.425781 175.832031 135.425781 175.527344 C 135.425781 175.222656 135.484375 174.929688 135.601562 174.648438 C 135.71875 174.367188 135.886719 174.117188 136.101562 173.902344 C 136.316406 173.6875 136.566406 173.519531 136.847656 173.402344 C 137.132812 173.285156 137.425781 173.226562 137.730469 173.226562 L 142.339844 173.226562 C 142.644531 173.226562 142.9375 173.285156 143.21875 173.402344 C 143.503906 173.519531 143.75 173.6875 143.96875 173.902344 C 144.183594 174.117188 144.351562 174.367188 144.46875 174.648438 C 144.585938 174.929688 144.644531 175.222656 144.644531 175.527344 Z M 144.644531 175.527344 "/>
</clipPath>
<linearGradient id="linear0" gradientUnits="userSpaceOnUse" x1="32" y1="60.002193" x2="32" y2="3.997546" gradientTransform="matrix(2.304147,0,0,2.297689,38.652077,97.404728)">
<stop offset="0" style="stop-color:rgb(0%,44.299316%,73.699951%);stop-opacity:1;"/>
<stop offset="0.00390625" style="stop-color:rgb(0.212097%,44.429016%,73.509216%);stop-opacity:1;"/>
<stop offset="0.0078125" style="stop-color:rgb(0.42572%,44.558716%,73.318481%);stop-opacity:1;"/>
<stop offset="0.0117188" style="stop-color:rgb(0.639343%,44.688416%,73.126221%);stop-opacity:1;"/>
<stop offset="0.015625" style="stop-color:rgb(0.854492%,44.818115%,72.935486%);stop-opacity:1;"/>
<stop offset="0.0195312" style="stop-color:rgb(1.068115%,44.947815%,72.743225%);stop-opacity:1;"/>
<stop offset="0.0234375" style="stop-color:rgb(1.283264%,45.079041%,72.55249%);stop-opacity:1;"/>
<stop offset="0.0273438" style="stop-color:rgb(1.498413%,45.20874%,72.360229%);stop-opacity:1;"/>
<stop offset="0.03125" style="stop-color:rgb(1.713562%,45.33844%,72.169495%);stop-opacity:1;"/>
<stop offset="0.0351562" style="stop-color:rgb(1.927185%,45.46814%,71.977234%);stop-opacity:1;"/>
<stop offset="0.0390625" style="stop-color:rgb(2.142334%,45.599365%,71.786499%);stop-opacity:1;"/>
<stop offset="0.0429688" style="stop-color:rgb(2.355957%,45.729065%,71.594238%);stop-opacity:1;"/>
<stop offset="0.046875" style="stop-color:rgb(2.571106%,45.858765%,71.403503%);stop-opacity:1;"/>
<stop offset="0.0507813" style="stop-color:rgb(2.784729%,45.988464%,71.211243%);stop-opacity:1;"/>
<stop offset="0.0546875" style="stop-color:rgb(2.999878%,46.11969%,71.020508%);stop-opacity:1;"/>
<stop offset="0.0585938" style="stop-color:rgb(3.213501%,46.24939%,70.829773%);stop-opacity:1;"/>
<stop offset="0.0625" style="stop-color:rgb(3.42865%,46.379089%,70.639038%);stop-opacity:1;"/>
<stop offset="0.0664063" style="stop-color:rgb(3.642273%,46.508789%,70.446777%);stop-opacity:1;"/>
<stop offset="0.0703125" style="stop-color:rgb(3.857422%,46.640015%,70.256042%);stop-opacity:1;"/>
<stop offset="0.0742188" style="stop-color:rgb(4.071045%,46.769714%,70.063782%);stop-opacity:1;"/>
<stop offset="0.078125" style="stop-color:rgb(4.286194%,46.899414%,69.873047%);stop-opacity:1;"/>
<stop offset="0.0820312" style="stop-color:rgb(4.499817%,47.029114%,69.680786%);stop-opacity:1;"/>
<stop offset="0.0859375" style="stop-color:rgb(4.714966%,47.160339%,69.490051%);stop-opacity:1;"/>
<stop offset="0.0898438" style="stop-color:rgb(4.928589%,47.290039%,69.297791%);stop-opacity:1;"/>
<stop offset="0.09375" style="stop-color:rgb(5.143738%,47.419739%,69.107056%);stop-opacity:1;"/>
<stop offset="0.0976562" style="stop-color:rgb(5.358887%,47.549438%,68.914795%);stop-opacity:1;"/>
<stop offset="0.101562" style="stop-color:rgb(5.574036%,47.680664%,68.72406%);stop-opacity:1;"/>
<stop offset="0.105469" style="stop-color:rgb(5.787659%,47.810364%,68.531799%);stop-opacity:1;"/>
<stop offset="0.109375" style="stop-color:rgb(6.002808%,47.940063%,68.341064%);stop-opacity:1;"/>
<stop offset="0.113281" style="stop-color:rgb(6.216431%,48.069763%,68.148804%);stop-opacity:1;"/>
<stop offset="0.117188" style="stop-color:rgb(6.43158%,48.200989%,67.958069%);stop-opacity:1;"/>
<stop offset="0.121094" style="stop-color:rgb(6.645203%,48.330688%,67.765808%);stop-opacity:1;"/>
<stop offset="0.125" style="stop-color:rgb(6.860352%,48.460388%,67.575073%);stop-opacity:1;"/>
<stop offset="0.128906" style="stop-color:rgb(7.073975%,48.590088%,67.382812%);stop-opacity:1;"/>
<stop offset="0.132812" style="stop-color:rgb(7.289124%,48.721313%,67.192078%);stop-opacity:1;"/>
<stop offset="0.136719" style="stop-color:rgb(7.502747%,48.851013%,67.001343%);stop-opacity:1;"/>
<stop offset="0.140625" style="stop-color:rgb(7.717896%,48.980713%,66.810608%);stop-opacity:1;"/>
<stop offset="0.144531" style="stop-color:rgb(7.931519%,49.110413%,66.618347%);stop-opacity:1;"/>
<stop offset="0.148438" style="stop-color:rgb(8.146667%,49.241638%,66.427612%);stop-opacity:1;"/>
<stop offset="0.152344" style="stop-color:rgb(8.360291%,49.371338%,66.235352%);stop-opacity:1;"/>
<stop offset="0.15625" style="stop-color:rgb(8.575439%,49.501038%,66.044617%);stop-opacity:1;"/>
<stop offset="0.160156" style="stop-color:rgb(8.789062%,49.630737%,65.852356%);stop-opacity:1;"/>
<stop offset="0.164062" style="stop-color:rgb(9.004211%,49.761963%,65.661621%);stop-opacity:1;"/>
<stop offset="0.167969" style="stop-color:rgb(9.21936%,49.891663%,65.46936%);stop-opacity:1;"/>
<stop offset="0.171875" style="stop-color:rgb(9.434509%,50.021362%,65.278625%);stop-opacity:1;"/>
<stop offset="0.175781" style="stop-color:rgb(9.648132%,50.151062%,65.086365%);stop-opacity:1;"/>
<stop offset="0.179688" style="stop-color:rgb(9.863281%,50.282288%,64.89563%);stop-opacity:1;"/>
<stop offset="0.183594" style="stop-color:rgb(10.076904%,50.411987%,64.703369%);stop-opacity:1;"/>
<stop offset="0.1875" style="stop-color:rgb(10.292053%,50.541687%,64.512634%);stop-opacity:1;"/>
<stop offset="0.191406" style="stop-color:rgb(10.505676%,50.671387%,64.320374%);stop-opacity:1;"/>
<stop offset="0.195312" style="stop-color:rgb(10.720825%,50.802612%,64.129639%);stop-opacity:1;"/>
<stop offset="0.199219" style="stop-color:rgb(10.934448%,50.932312%,63.937378%);stop-opacity:1;"/>
<stop offset="0.203125" style="stop-color:rgb(11.149597%,51.062012%,63.746643%);stop-opacity:1;"/>
<stop offset="0.207031" style="stop-color:rgb(11.36322%,51.191711%,63.554382%);stop-opacity:1;"/>
<stop offset="0.210938" style="stop-color:rgb(11.578369%,51.322937%,63.363647%);stop-opacity:1;"/>
<stop offset="0.214844" style="stop-color:rgb(11.791992%,51.452637%,63.172913%);stop-opacity:1;"/>
<stop offset="0.21875" style="stop-color:rgb(12.007141%,51.582336%,62.982178%);stop-opacity:1;"/>
<stop offset="0.222656" style="stop-color:rgb(12.220764%,51.712036%,62.789917%);stop-opacity:1;"/>
<stop offset="0.226562" style="stop-color:rgb(12.435913%,51.843262%,62.599182%);stop-opacity:1;"/>
<stop offset="0.230469" style="stop-color:rgb(12.649536%,51.972961%,62.406921%);stop-opacity:1;"/>
<stop offset="0.234375" style="stop-color:rgb(12.864685%,52.102661%,62.216187%);stop-opacity:1;"/>
<stop offset="0.238281" style="stop-color:rgb(13.079834%,52.232361%,62.023926%);stop-opacity:1;"/>
<stop offset="0.242187" style="stop-color:rgb(13.294983%,52.363586%,61.833191%);stop-opacity:1;"/>
<stop offset="0.246094" style="stop-color:rgb(13.508606%,52.493286%,61.64093%);stop-opacity:1;"/>
<stop offset="0.25" style="stop-color:rgb(13.723755%,52.622986%,61.450195%);stop-opacity:1;"/>
<stop offset="0.253906" style="stop-color:rgb(13.937378%,52.752686%,61.257935%);stop-opacity:1;"/>
<stop offset="0.257813" style="stop-color:rgb(14.152527%,52.883911%,61.0672%);stop-opacity:1;"/>
<stop offset="0.261719" style="stop-color:rgb(14.36615%,53.013611%,60.874939%);stop-opacity:1;"/>
<stop offset="0.265625" style="stop-color:rgb(14.581299%,53.143311%,60.684204%);stop-opacity:1;"/>
<stop offset="0.269531" style="stop-color:rgb(14.794922%,53.27301%,60.491943%);stop-opacity:1;"/>
<stop offset="0.273438" style="stop-color:rgb(15.010071%,53.404236%,60.301208%);stop-opacity:1;"/>
<stop offset="0.277344" style="stop-color:rgb(15.223694%,53.533936%,60.108948%);stop-opacity:1;"/>
<stop offset="0.28125" style="stop-color:rgb(15.438843%,53.663635%,59.918213%);stop-opacity:1;"/>
<stop offset="0.285156" style="stop-color:rgb(15.652466%,53.793335%,59.725952%);stop-opacity:1;"/>
<stop offset="0.289062" style="stop-color:rgb(15.867615%,53.924561%,59.535217%);stop-opacity:1;"/>
<stop offset="0.292969" style="stop-color:rgb(16.081238%,54.05426%,59.344482%);stop-opacity:1;"/>
<stop offset="0.296875" style="stop-color:rgb(16.296387%,54.18396%,59.153748%);stop-opacity:1;"/>
<stop offset="0.300781" style="stop-color:rgb(16.51001%,54.31366%,58.961487%);stop-opacity:1;"/>
<stop offset="0.304688" style="stop-color:rgb(16.725159%,54.444885%,58.770752%);stop-opacity:1;"/>
<stop offset="0.308594" style="stop-color:rgb(16.940308%,54.574585%,58.578491%);stop-opacity:1;"/>
<stop offset="0.3125" style="stop-color:rgb(17.155457%,54.704285%,58.387756%);stop-opacity:1;"/>
<stop offset="0.316406" style="stop-color:rgb(17.36908%,54.833984%,58.195496%);stop-opacity:1;"/>
<stop offset="0.320312" style="stop-color:rgb(17.584229%,54.96521%,58.004761%);stop-opacity:1;"/>
<stop offset="0.324219" style="stop-color:rgb(17.797852%,55.09491%,57.8125%);stop-opacity:1;"/>
<stop offset="0.328125" style="stop-color:rgb(18.013%,55.226135%,57.621765%);stop-opacity:1;"/>
<stop offset="0.332031" style="stop-color:rgb(18.226624%,55.355835%,57.429504%);stop-opacity:1;"/>
<stop offset="0.335938" style="stop-color:rgb(18.441772%,55.485535%,57.23877%);stop-opacity:1;"/>
<stop offset="0.339844" style="stop-color:rgb(18.655396%,55.615234%,57.046509%);stop-opacity:1;"/>
<stop offset="0.34375" style="stop-color:rgb(18.870544%,55.74646%,56.855774%);stop-opacity:1;"/>
<stop offset="0.347656" style="stop-color:rgb(19.084167%,55.87616%,56.663513%);stop-opacity:1;"/>
<stop offset="0.351562" style="stop-color:rgb(19.299316%,56.005859%,56.472778%);stop-opacity:1;"/>
<stop offset="0.355469" style="stop-color:rgb(19.512939%,56.135559%,56.280518%);stop-opacity:1;"/>
<stop offset="0.359375" style="stop-color:rgb(19.728088%,56.266785%,56.089783%);stop-opacity:1;"/>
<stop offset="0.363281" style="stop-color:rgb(19.941711%,56.396484%,55.897522%);stop-opacity:1;"/>
<stop offset="0.367188" style="stop-color:rgb(20.15686%,56.526184%,55.706787%);stop-opacity:1;"/>
<stop offset="0.371094" style="stop-color:rgb(20.370483%,56.655884%,55.516052%);stop-opacity:1;"/>
<stop offset="0.375" style="stop-color:rgb(20.585632%,56.787109%,55.325317%);stop-opacity:1;"/>
<stop offset="0.378906" style="stop-color:rgb(20.800781%,56.916809%,55.133057%);stop-opacity:1;"/>
<stop offset="0.382812" style="stop-color:rgb(21.01593%,57.046509%,54.942322%);stop-opacity:1;"/>
<stop offset="0.386719" style="stop-color:rgb(21.229553%,57.176208%,54.750061%);stop-opacity:1;"/>
<stop offset="0.390625" style="stop-color:rgb(21.444702%,57.307434%,54.559326%);stop-opacity:1;"/>
<stop offset="0.394531" style="stop-color:rgb(21.658325%,57.437134%,54.367065%);stop-opacity:1;"/>
<stop offset="0.398438" style="stop-color:rgb(21.873474%,57.566833%,54.176331%);stop-opacity:1;"/>
<stop offset="0.402344" style="stop-color:rgb(22.087097%,57.696533%,53.98407%);stop-opacity:1;"/>
<stop offset="0.40625" style="stop-color:rgb(22.302246%,57.827759%,53.793335%);stop-opacity:1;"/>
<stop offset="0.410156" style="stop-color:rgb(22.515869%,57.957458%,53.601074%);stop-opacity:1;"/>
<stop offset="0.414062" style="stop-color:rgb(22.731018%,58.087158%,53.410339%);stop-opacity:1;"/>
<stop offset="0.417969" style="stop-color:rgb(22.944641%,58.216858%,53.218079%);stop-opacity:1;"/>
<stop offset="0.421875" style="stop-color:rgb(23.15979%,58.348083%,53.027344%);stop-opacity:1;"/>
<stop offset="0.425781" style="stop-color:rgb(23.373413%,58.477783%,52.835083%);stop-opacity:1;"/>
<stop offset="0.429688" style="stop-color:rgb(23.588562%,58.607483%,52.644348%);stop-opacity:1;"/>
<stop offset="0.433594" style="stop-color:rgb(23.802185%,58.737183%,52.452087%);stop-opacity:1;"/>
<stop offset="0.4375" style="stop-color:rgb(24.017334%,58.868408%,52.261353%);stop-opacity:1;"/>
<stop offset="0.441406" style="stop-color:rgb(24.230957%,58.998108%,52.069092%);stop-opacity:1;"/>
<stop offset="0.445313" style="stop-color:rgb(24.446106%,59.127808%,51.878357%);stop-opacity:1;"/>
<stop offset="0.449219" style="stop-color:rgb(24.661255%,59.257507%,51.687622%);stop-opacity:1;"/>
<stop offset="0.453125" style="stop-color:rgb(24.876404%,59.388733%,51.496887%);stop-opacity:1;"/>
<stop offset="0.457031" style="stop-color:rgb(25.090027%,59.518433%,51.304626%);stop-opacity:1;"/>
<stop offset="0.460938" style="stop-color:rgb(25.305176%,59.648132%,51.113892%);stop-opacity:1;"/>
<stop offset="0.464844" style="stop-color:rgb(25.518799%,59.777832%,50.921631%);stop-opacity:1;"/>
<stop offset="0.46875" style="stop-color:rgb(25.733948%,59.909058%,50.730896%);stop-opacity:1;"/>
<stop offset="0.472656" style="stop-color:rgb(25.947571%,60.038757%,50.538635%);stop-opacity:1;"/>
<stop offset="0.476563" style="stop-color:rgb(26.16272%,60.168457%,50.3479%);stop-opacity:1;"/>
<stop offset="0.480469" style="stop-color:rgb(26.376343%,60.298157%,50.15564%);stop-opacity:1;"/>
<stop offset="0.484375" style="stop-color:rgb(26.591492%,60.429382%,49.964905%);stop-opacity:1;"/>
<stop offset="0.488281" style="stop-color:rgb(26.805115%,60.559082%,49.772644%);stop-opacity:1;"/>
<stop offset="0.492188" style="stop-color:rgb(27.020264%,60.688782%,49.581909%);stop-opacity:1;"/>
<stop offset="0.496094" style="stop-color:rgb(27.233887%,60.818481%,49.389648%);stop-opacity:1;"/>
<stop offset="0.5" style="stop-color:rgb(27.449036%,60.949707%,49.198914%);stop-opacity:1;"/>
<stop offset="0.503906" style="stop-color:rgb(27.662659%,61.079407%,49.006653%);stop-opacity:1;"/>
<stop offset="0.507812" style="stop-color:rgb(27.877808%,61.209106%,48.815918%);stop-opacity:1;"/>
<stop offset="0.511719" style="stop-color:rgb(28.091431%,61.338806%,48.623657%);stop-opacity:1;"/>
<stop offset="0.515625" style="stop-color:rgb(28.30658%,61.470032%,48.432922%);stop-opacity:1;"/>
<stop offset="0.519531" style="stop-color:rgb(28.521729%,61.599731%,48.240662%);stop-opacity:1;"/>
<stop offset="0.523438" style="stop-color:rgb(28.736877%,61.729431%,48.049927%);stop-opacity:1;"/>
<stop offset="0.527344" style="stop-color:rgb(28.9505%,61.859131%,47.859192%);stop-opacity:1;"/>
<stop offset="0.53125" style="stop-color:rgb(29.165649%,61.990356%,47.668457%);stop-opacity:1;"/>
<stop offset="0.535156" style="stop-color:rgb(29.379272%,62.120056%,47.476196%);stop-opacity:1;"/>
<stop offset="0.539062" style="stop-color:rgb(29.594421%,62.249756%,47.285461%);stop-opacity:1;"/>
<stop offset="0.542969" style="stop-color:rgb(29.808044%,62.379456%,47.093201%);stop-opacity:1;"/>
<stop offset="0.546875" style="stop-color:rgb(30.023193%,62.510681%,46.902466%);stop-opacity:1;"/>
<stop offset="0.550781" style="stop-color:rgb(30.236816%,62.640381%,46.710205%);stop-opacity:1;"/>
<stop offset="0.554688" style="stop-color:rgb(30.451965%,62.770081%,46.51947%);stop-opacity:1;"/>
<stop offset="0.558594" style="stop-color:rgb(30.665588%,62.89978%,46.327209%);stop-opacity:1;"/>
<stop offset="0.5625" style="stop-color:rgb(30.880737%,63.031006%,46.136475%);stop-opacity:1;"/>
<stop offset="0.566406" style="stop-color:rgb(31.09436%,63.160706%,45.944214%);stop-opacity:1;"/>
<stop offset="0.570312" style="stop-color:rgb(31.309509%,63.290405%,45.753479%);stop-opacity:1;"/>
<stop offset="0.574219" style="stop-color:rgb(31.523132%,63.420105%,45.561218%);stop-opacity:1;"/>
<stop offset="0.578125" style="stop-color:rgb(31.738281%,63.551331%,45.370483%);stop-opacity:1;"/>
<stop offset="0.582031" style="stop-color:rgb(31.951904%,63.68103%,45.178223%);stop-opacity:1;"/>
<stop offset="0.585938" style="stop-color:rgb(32.167053%,63.81073%,44.987488%);stop-opacity:1;"/>
<stop offset="0.589844" style="stop-color:rgb(32.382202%,63.94043%,44.795227%);stop-opacity:1;"/>
<stop offset="0.59375" style="stop-color:rgb(32.597351%,64.071655%,44.604492%);stop-opacity:1;"/>
<stop offset="0.597656" style="stop-color:rgb(32.810974%,64.201355%,44.412231%);stop-opacity:1;"/>
<stop offset="0.601562" style="stop-color:rgb(33.026123%,64.331055%,44.221497%);stop-opacity:1;"/>
<stop offset="0.605469" style="stop-color:rgb(33.239746%,64.460754%,44.030762%);stop-opacity:1;"/>
<stop offset="0.609375" style="stop-color:rgb(33.454895%,64.59198%,43.840027%);stop-opacity:1;"/>
<stop offset="0.613281" style="stop-color:rgb(33.668518%,64.72168%,43.647766%);stop-opacity:1;"/>
<stop offset="0.617188" style="stop-color:rgb(33.883667%,64.851379%,43.457031%);stop-opacity:1;"/>
<stop offset="0.621094" style="stop-color:rgb(34.09729%,64.981079%,43.264771%);stop-opacity:1;"/>
<stop offset="0.625" style="stop-color:rgb(34.312439%,65.112305%,43.074036%);stop-opacity:1;"/>
<stop offset="0.628906" style="stop-color:rgb(34.526062%,65.242004%,42.881775%);stop-opacity:1;"/>
<stop offset="0.632812" style="stop-color:rgb(34.741211%,65.371704%,42.69104%);stop-opacity:1;"/>
<stop offset="0.636719" style="stop-color:rgb(34.954834%,65.501404%,42.498779%);stop-opacity:1;"/>
<stop offset="0.640625" style="stop-color:rgb(35.169983%,65.632629%,42.308044%);stop-opacity:1;"/>
<stop offset="0.644531" style="stop-color:rgb(35.383606%,65.762329%,42.115784%);stop-opacity:1;"/>
<stop offset="0.648437" style="stop-color:rgb(35.598755%,65.892029%,41.925049%);stop-opacity:1;"/>
<stop offset="0.652344" style="stop-color:rgb(35.812378%,66.021729%,41.732788%);stop-opacity:1;"/>
<stop offset="0.65625" style="stop-color:rgb(36.027527%,66.152954%,41.542053%);stop-opacity:1;"/>
<stop offset="0.660156" style="stop-color:rgb(36.242676%,66.282654%,41.349792%);stop-opacity:1;"/>
<stop offset="0.664062" style="stop-color:rgb(36.457825%,66.412354%,41.159058%);stop-opacity:1;"/>
<stop offset="0.667969" style="stop-color:rgb(36.671448%,66.542053%,40.966797%);stop-opacity:1;"/>
<stop offset="0.671875" style="stop-color:rgb(36.886597%,66.673279%,40.776062%);stop-opacity:1;"/>
<stop offset="0.675781" style="stop-color:rgb(37.10022%,66.802979%,40.583801%);stop-opacity:1;"/>
<stop offset="0.679687" style="stop-color:rgb(37.315369%,66.932678%,40.393066%);stop-opacity:1;"/>
<stop offset="0.683594" style="stop-color:rgb(37.528992%,67.062378%,40.202332%);stop-opacity:1;"/>
<stop offset="0.6875" style="stop-color:rgb(37.744141%,67.193604%,40.011597%);stop-opacity:1;"/>
<stop offset="0.691406" style="stop-color:rgb(37.957764%,67.323303%,39.819336%);stop-opacity:1;"/>
<stop offset="0.695312" style="stop-color:rgb(38.172913%,67.453003%,39.628601%);stop-opacity:1;"/>
<stop offset="0.699219" style="stop-color:rgb(38.386536%,67.582703%,39.43634%);stop-opacity:1;"/>
<stop offset="0.703125" style="stop-color:rgb(38.601685%,67.713928%,39.245605%);stop-opacity:1;"/>
<stop offset="0.707031" style="stop-color:rgb(38.815308%,67.843628%,39.053345%);stop-opacity:1;"/>
<stop offset="0.710938" style="stop-color:rgb(39.030457%,67.974854%,38.86261%);stop-opacity:1;"/>
<stop offset="0.714844" style="stop-color:rgb(39.24408%,68.104553%,38.670349%);stop-opacity:1;"/>
<stop offset="0.71875" style="stop-color:rgb(39.459229%,68.234253%,38.479614%);stop-opacity:1;"/>
<stop offset="0.722656" style="stop-color:rgb(39.672852%,68.363953%,38.287354%);stop-opacity:1;"/>
<stop offset="0.726562" style="stop-color:rgb(39.888%,68.495178%,38.096619%);stop-opacity:1;"/>
<stop offset="0.730469" style="stop-color:rgb(40.103149%,68.624878%,37.904358%);stop-opacity:1;"/>
<stop offset="0.734375" style="stop-color:rgb(40.318298%,68.754578%,37.713623%);stop-opacity:1;"/>
<stop offset="0.738281" style="stop-color:rgb(40.531921%,68.884277%,37.521362%);stop-opacity:1;"/>
<stop offset="0.742188" style="stop-color:rgb(40.74707%,69.015503%,37.330627%);stop-opacity:1;"/>
<stop offset="0.746094" style="stop-color:rgb(40.960693%,69.145203%,37.138367%);stop-opacity:1;"/>
<stop offset="0.75" style="stop-color:rgb(41.175842%,69.274902%,36.947632%);stop-opacity:1;"/>
<stop offset="0.753906" style="stop-color:rgb(41.389465%,69.404602%,36.755371%);stop-opacity:1;"/>
<stop offset="0.757812" style="stop-color:rgb(41.604614%,69.535828%,36.564636%);stop-opacity:1;"/>
<stop offset="0.761719" style="stop-color:rgb(41.818237%,69.665527%,36.373901%);stop-opacity:1;"/>
<stop offset="0.765625" style="stop-color:rgb(42.033386%,69.795227%,36.183167%);stop-opacity:1;"/>
<stop offset="0.769531" style="stop-color:rgb(42.247009%,69.924927%,35.990906%);stop-opacity:1;"/>
<stop offset="0.773438" style="stop-color:rgb(42.462158%,70.056152%,35.800171%);stop-opacity:1;"/>
<stop offset="0.777344" style="stop-color:rgb(42.675781%,70.185852%,35.60791%);stop-opacity:1;"/>
<stop offset="0.78125" style="stop-color:rgb(42.89093%,70.315552%,35.417175%);stop-opacity:1;"/>
<stop offset="0.785156" style="stop-color:rgb(43.104553%,70.445251%,35.224915%);stop-opacity:1;"/>
<stop offset="0.789062" style="stop-color:rgb(43.319702%,70.576477%,35.03418%);stop-opacity:1;"/>
<stop offset="0.792969" style="stop-color:rgb(43.533325%,70.706177%,34.841919%);stop-opacity:1;"/>
<stop offset="0.796875" style="stop-color:rgb(43.748474%,70.835876%,34.651184%);stop-opacity:1;"/>
<stop offset="0.800781" style="stop-color:rgb(43.963623%,70.965576%,34.458923%);stop-opacity:1;"/>
<stop offset="0.804687" style="stop-color:rgb(44.178772%,71.096802%,34.268188%);stop-opacity:1;"/>
<stop offset="0.808594" style="stop-color:rgb(44.392395%,71.226501%,34.075928%);stop-opacity:1;"/>
<stop offset="0.8125" style="stop-color:rgb(44.607544%,71.356201%,33.885193%);stop-opacity:1;"/>
<stop offset="0.816406" style="stop-color:rgb(44.821167%,71.485901%,33.692932%);stop-opacity:1;"/>
<stop offset="0.820312" style="stop-color:rgb(45.036316%,71.617126%,33.502197%);stop-opacity:1;"/>
<stop offset="0.824219" style="stop-color:rgb(45.249939%,71.746826%,33.309937%);stop-opacity:1;"/>
<stop offset="0.828125" style="stop-color:rgb(45.465088%,71.876526%,33.119202%);stop-opacity:1;"/>
<stop offset="0.832031" style="stop-color:rgb(45.678711%,72.006226%,32.926941%);stop-opacity:1;"/>
<stop offset="0.835938" style="stop-color:rgb(45.89386%,72.137451%,32.736206%);stop-opacity:1;"/>
<stop offset="0.839844" style="stop-color:rgb(46.107483%,72.267151%,32.545471%);stop-opacity:1;"/>
<stop offset="0.84375" style="stop-color:rgb(46.322632%,72.396851%,32.354736%);stop-opacity:1;"/>
<stop offset="0.847656" style="stop-color:rgb(46.536255%,72.52655%,32.162476%);stop-opacity:1;"/>
<stop offset="0.851562" style="stop-color:rgb(46.751404%,72.657776%,31.971741%);stop-opacity:1;"/>
<stop offset="0.855469" style="stop-color:rgb(46.965027%,72.787476%,31.77948%);stop-opacity:1;"/>
<stop offset="0.859375" style="stop-color:rgb(47.180176%,72.917175%,31.588745%);stop-opacity:1;"/>
<stop offset="0.863281" style="stop-color:rgb(47.393799%,73.046875%,31.396484%);stop-opacity:1;"/>
<stop offset="0.867188" style="stop-color:rgb(47.608948%,73.178101%,31.20575%);stop-opacity:1;"/>
<stop offset="0.871094" style="stop-color:rgb(47.824097%,73.3078%,31.013489%);stop-opacity:1;"/>
<stop offset="0.875" style="stop-color:rgb(48.039246%,73.4375%,30.822754%);stop-opacity:1;"/>
<stop offset="0.878906" style="stop-color:rgb(48.252869%,73.5672%,30.630493%);stop-opacity:1;"/>
<stop offset="0.882812" style="stop-color:rgb(48.468018%,73.698425%,30.439758%);stop-opacity:1;"/>
<stop offset="0.886719" style="stop-color:rgb(48.681641%,73.828125%,30.247498%);stop-opacity:1;"/>
<stop offset="0.890625" style="stop-color:rgb(48.89679%,73.957825%,30.056763%);stop-opacity:1;"/>
<stop offset="0.894531" style="stop-color:rgb(49.110413%,74.087524%,29.864502%);stop-opacity:1;"/>
<stop offset="0.898438" style="stop-color:rgb(49.325562%,74.21875%,29.673767%);stop-opacity:1;"/>
<stop offset="0.902344" style="stop-color:rgb(49.539185%,74.34845%,29.481506%);stop-opacity:1;"/>
<stop offset="0.90625" style="stop-color:rgb(49.754333%,74.478149%,29.290771%);stop-opacity:1;"/>
<stop offset="0.910156" style="stop-color:rgb(49.967957%,74.607849%,29.098511%);stop-opacity:1;"/>
<stop offset="0.914062" style="stop-color:rgb(50.183105%,74.739075%,28.907776%);stop-opacity:1;"/>
<stop offset="0.917969" style="stop-color:rgb(50.396729%,74.868774%,28.715515%);stop-opacity:1;"/>
<stop offset="0.921875" style="stop-color:rgb(50.611877%,74.998474%,28.52478%);stop-opacity:1;"/>
<stop offset="0.925781" style="stop-color:rgb(50.8255%,75.128174%,28.334045%);stop-opacity:1;"/>
<stop offset="0.929687" style="stop-color:rgb(51.040649%,75.259399%,28.143311%);stop-opacity:1;"/>
<stop offset="0.933594" style="stop-color:rgb(51.254272%,75.389099%,27.95105%);stop-opacity:1;"/>
<stop offset="0.9375" style="stop-color:rgb(51.469421%,75.518799%,27.760315%);stop-opacity:1;"/>
<stop offset="0.941406" style="stop-color:rgb(51.68457%,75.648499%,27.568054%);stop-opacity:1;"/>
<stop offset="0.945312" style="stop-color:rgb(51.899719%,75.779724%,27.377319%);stop-opacity:1;"/>
<stop offset="0.949219" style="stop-color:rgb(52.113342%,75.909424%,27.185059%);stop-opacity:1;"/>
<stop offset="0.953125" style="stop-color:rgb(52.328491%,76.039124%,26.994324%);stop-opacity:1;"/>
<stop offset="0.957031" style="stop-color:rgb(52.542114%,76.168823%,26.802063%);stop-opacity:1;"/>
<stop offset="0.960938" style="stop-color:rgb(52.757263%,76.300049%,26.611328%);stop-opacity:1;"/>
<stop offset="0.964844" style="stop-color:rgb(52.970886%,76.429749%,26.419067%);stop-opacity:1;"/>
<stop offset="0.96875" style="stop-color:rgb(53.186035%,76.559448%,26.228333%);stop-opacity:1;"/>
<stop offset="0.972656" style="stop-color:rgb(53.399658%,76.689148%,26.036072%);stop-opacity:1;"/>
<stop offset="0.976562" style="stop-color:rgb(53.614807%,76.820374%,25.845337%);stop-opacity:1;"/>
<stop offset="0.980469" style="stop-color:rgb(53.82843%,76.950073%,25.653076%);stop-opacity:1;"/>
<stop offset="0.984375" style="stop-color:rgb(54.043579%,77.079773%,25.462341%);stop-opacity:1;"/>
<stop offset="0.988281" style="stop-color:rgb(54.257202%,77.209473%,25.270081%);stop-opacity:1;"/>
<stop offset="0.992188" style="stop-color:rgb(54.472351%,77.340698%,25.079346%);stop-opacity:1;"/>
<stop offset="0.996094" style="stop-color:rgb(54.685974%,77.468872%,24.888611%);stop-opacity:1;"/>
<stop offset="1" style="stop-color:rgb(54.899597%,77.598572%,24.699402%);stop-opacity:1;"/>
</linearGradient>
<clipPath id="clip4">
  <path d="M 155.066406 171 L 220 171 L 220 246.117188 L 155.066406 246.117188 Z M 155.066406 171 "/>
</clipPath>
<clipPath id="clip5">
  <path d="M 174 113 L 248.816406 113 L 248.816406 160 L 174 160 Z M 174 113 "/>
</clipPath>
<clipPath id="clip6">
  <path d="M 174 96.117188 L 248.816406 96.117188 L 248.816406 102 L 174 102 Z M 174 96.117188 "/>
</clipPath>
</defs>
<g id="surface1">
<g clip-path="url(#clip1)" clip-rule="nonzero">
<path style=" stroke:none;fill-rule:nonzero;fill:rgb(63.529968%,4.708862%,4.708862%);fill-opacity:1;" d="M 201.988281 121.824219 L 227.902344 127.195312 L 257.015625 174.964844 L 227.902344 222.730469 L 201.988281 228.101562 L 234.734375 175.34375 L 234.972656 174.964844 Z M 299.167969 109.324219 L 335.199219 101.851562 L 290.164062 174.40625 L 289.929688 174.792969 L 335.199219 247.726562 L 299.167969 240.253906 L 259.265625 174.792969 Z M 228.664062 223.96875 L 258.191406 175.519531 L 298.40625 241.492188 L 337.945312 249.695312 L 291.453125 174.792969 L 337.945312 99.886719 L 298.667969 108.03125 L 298.40625 108.085938 L 258.089844 174.230469 L 228.664062 125.957031 L 199.242188 119.855469 L 233.449219 174.964844 L 199.242188 230.066406 L 228.664062 223.96875 "/>
</g>
<g clip-path="url(#clip2)" clip-rule="nonzero">
<g clip-path="url(#clip3)" clip-rule="nonzero">
<path style=" stroke:none;fill-rule:nonzero;fill:url(#linear0);" d="M 40.886719 106.589844 L 40.886719 235.269531 L 183.871094 235.269531 L 183.871094 106.589844 Z M 40.886719 106.589844 "/>
</g>
</g>
<g clip-path="url(#clip4)" clip-rule="nonzero">
<path style=" stroke:none;fill-rule:nonzero;fill:rgb(24.308777%,49.01886%,5.099487%);fill-opacity:1;" d="M 216.792969 171.402344 L 174.371094 171.402344 L 174.371094 241.246094 L 157.492188 241.246094 C 156.160156 241.246094 155.082031 242.324219 155.082031 243.65625 C 155.082031 244.988281 156.160156 246.066406 157.492188 246.066406 L 179.1875 246.066406 L 179.1875 176.222656 L 216.792969 176.222656 C 218.125 176.222656 219.199219 175.144531 219.199219 173.8125 C 219.199219 172.480469 218.125 171.402344 216.792969 171.402344 "/>
</g>
<path style=" stroke:none;fill-rule:nonzero;fill:rgb(24.308777%,49.01886%,5.099487%);fill-opacity:1;" d="M 235.28125 171.402344 L 229.636719 171.402344 C 228.308594 171.402344 227.230469 172.480469 227.230469 173.8125 C 227.230469 175.144531 228.308594 176.222656 229.636719 176.222656 L 235.28125 176.222656 C 236.613281 176.222656 237.691406 175.144531 237.691406 173.8125 C 237.691406 172.480469 236.613281 171.402344 235.28125 171.402344 "/>
<g clip-path="url(#clip5)" clip-rule="nonzero">
<path style=" stroke:none;fill-rule:nonzero;fill:rgb(24.308777%,49.01886%,5.099487%);fill-opacity:1;" d="M 246.421875 113.347656 L 174.371094 113.347656 L 174.371094 159.078125 L 234.980469 159.078125 C 236.3125 159.078125 237.390625 158 237.390625 156.667969 C 237.390625 155.335938 236.3125 154.261719 234.980469 154.261719 L 179.1875 154.261719 L 179.1875 118.164062 L 246.421875 118.164062 C 247.753906 118.164062 248.832031 117.089844 248.832031 115.757812 C 248.832031 114.425781 247.753906 113.347656 246.421875 113.347656 "/>
</g>
<g clip-path="url(#clip6)" clip-rule="nonzero">
<path style=" stroke:none;fill-rule:nonzero;fill:rgb(24.308777%,49.01886%,5.099487%);fill-opacity:1;" d="M 176.871094 101.019531 L 246.421875 101.019531 C 247.753906 101.019531 248.832031 99.941406 248.832031 98.613281 C 248.832031 97.28125 247.753906 96.203125 246.421875 96.203125 L 176.871094 96.203125 C 175.539062 96.203125 174.460938 97.28125 174.460938 98.613281 C 174.460938 99.941406 175.539062 101.019531 176.871094 101.019531 "/>
</g>
</g>
</svg>
